<!-- DO NOT USE 'PATH' -->

<svg xmlns="http://www.w3.org/2000/svg" viewBox="0 0 500 500">

    <!-- BOUNDARY (testing purposes)-->
    <!-- <rect x="0" y="0" height="500" width="500" stroke="green" stroke-width="5" fill="white"/> -->

   <!-- TOP BAR -->
   <rect x="12.008" y="18" height="50" width="476" stroke="black" stroke-width="4" fill="black"/>

   <!-- RIGHT D CIRCLE -->
   <g clip-path="url(#right-shape-cut-left-side)">
    <circle cx="340" cy="250" r="151" stroke="black" stroke-width="1" fill="black"/>
   </g>

   <!-- LEFT D CIRCLE -->
   <g clip-path="url(#left-shape-cut-left-side)">
    <circle cx="85" cy="250" r="151" stroke="black" stroke-width="1" fill="black"/>
   </g>
   
   
  <!-- LEFT D RECT -->
  
  <polygon points="10 97, 10 403, 85 402, 99 401, 110 380, 110 130, 99 99, 80 98" fill="black"/>
  <!-- <text x="95" y="98">hello</text> -->
  
  <!-- RIGHT D RECT -->
  <polygon points="265 97, 265 403, 330 402, 346 401.5, 355 380, 355 130, 346 98.5, 330 98" fill="black"/>

  <defs>
      <clipPath id="left-shape-cut-left-side">
        <rect x="12" y="80" height="350" width="300" stroke="blue" stroke-width="1" />
      </clipPath>

      <clipPath id="right-shape-cut-left-side">
        <rect x="300" y="80" height="350" width="300" stroke="blue" stroke-width="1" />
      </clipPath>
  </defs>

  <!-- TEARDROPS -->
  <polygon points="110 150, 65.5 270, 153.9 270" fill="white"/>
  <ellipse cx="109.7" cy="278" rx="45" ry="40" fill="white"/>

    <polygon points="368 150, 323.5 270, 411.9 270" fill="white"/>
    <ellipse cx="367.7" cy="278" rx="45" ry="40" fill="white"/>

   <!-- BOTTOM BAR -->
   <rect x="12.008" y="432" height="50" width="476" stroke="black" stroke-width="4" fill="black"/>
   <path fill="gold" d="M12.008 31.884 L 12.008 51.760 200.000 51.760 L 387.992 51.760 387.992 31.884 L 387.992 12.008 200.000 12.008 L 12.008 12.008 12.008 31.884 
   
   M12.008 200.041 
   L 12.008 320.165 46.480 319.962 
   C 74.965 319.795,81.845 319.643,86.092 319.090 
   C 160.817 309.354,208.055 237.013,186.680 165.048 
   C 174.648 124.543,139.954 92.277,98.551 83.088 
   C 86.109 80.327,79.073 79.940,41.097 79.927 
   L 12.008 79.917 12.008 200.041 
   
   M212.008 200.000 
   L 212.008 320.165 246.480 319.962 
   C 283.680 319.743,285.204 319.664,296.452 317.346 
   C 361.676 303.909,403.469 239.135,388.971 173.951 
   C 378.744 127.968,342.420 92.124,296.450 82.653 
   C 285.204 80.336,283.679 80.256,246.480 80.038 
   L 212.008 79.835 212.008 200.000 
   
   M110.165 161.284 
   C 120.017 183.830,128.699 203.890,129.457 205.861 
   C 136.852 225.085,127.882 247.329,109.189 256.123 
   C 78.584 270.521,44.928 242.876,53.216 210.145 
   C 54.235 206.122,91.638 119.630,92.130 120.159 
   C 92.198 120.231,100.313 138.737,110.165 161.284 
   
   M309.231 159.213 
   C 318.568 180.621,326.990 199.907,327.945 202.070 
   C 336.832 222.201,330.222 244.203,312.154 254.635 
   C 281.583 272.285,244.559 244.336,253.216 210.145 
   C 254.235 206.121,291.638 119.631,292.131 120.159 
   C 292.198 120.231,299.893 137.805,309.231 159.213 
   
   M12.008 368.116 
   L 12.008 387.992 200.000 387.992 
   L 387.992 387.992 387.992 368.116 
   L 387.992 348.240 200.000 348.240 
   L 12.008 348.240 12.008 368.116" />
   
</svg>
